<?xml version="1.0" encoding="UTF-8"?><svg id="Layer_2" xmlns="http://www.w3.org/2000/svg" viewBox="0 0 476.07 51.69"><defs><style>.cls-1{fill:#231f20;}</style></defs><g id="Badges"><g><path class="cls-1" d="M36.19,43.02v8.67H0v-5.7H1.98V5.78H0V.07H9.62V5.78h-1.94V45.98H30.48v-2.96h5.7Z"/><path class="cls-1" d="M86.95,45.98h2.14v5.7h-9.96v-5.7h2.11V28.49h-22.9v17.49h1.92v5.7h-9.62v-5.7h1.99V4.71L57.33,.02h24.93l4.69,4.69V45.98Zm-5.7-23.2V7.07l-1.35-1.35h-20.2l-1.35,1.35v15.71h22.9Z"/><path class="cls-1" d="M139.69,5.72V45.98h1.96v5.7h-6.38L111.23,12.69V45.98h1.96v5.7h-9.62v-5.7h1.96V5.72h-1.96V.02h6.55l23.87,38.72V5.72h-1.95V.02h9.62V5.72h-1.96Z"/><path class="cls-1" d="M192.2,4.77V47l-4.69,4.69h-31.44v-5.7h1.98V5.78h-1.98V.07h31.44l4.69,4.69Zm-5.7,2.36l-1.35-1.35h-21.39V45.98h21.39l1.35-1.35V7.13Z"/><path class="cls-1" d="M264.03,16.38V7.05l-1.35-1.35h-20.07l-1.35,1.35V44.62l1.35,1.35h20.07l1.35-1.35v-9.43h-7.01v-5.7h12.72v17.49l-4.69,4.69h-24.79l-4.69-4.69V4.69l4.69-4.69h24.79l4.69,4.69v11.69h1.96v5.7h-9.62v-5.7h1.95Z"/><path class="cls-1" d="M322.27,45.98h2.08v5.7h-9.62v-5.7h1.84v-14.13l-3.35-3.35h-1.53s-17.86-.01-17.86-.01v17.5h1.94v5.7h-9.62v-5.7h1.98V5.78h-1.98V.07h31.44l4.69,4.69V21.8l-3.85,3.85,3.85,3.85v16.5Zm-28.45-40.21V22.78h19.39l3.35-3.35V7.13l-1.35-1.35h-21.39Z"/><path class="cls-1" d="M372.95,4.7V47l-4.69,4.69h-24.78l-4.69-4.69V4.71L343.48,.01h24.78l4.69,4.69Zm-5.7,2.36l-1.35-1.35h-20.06l-1.35,1.35V44.63l1.35,1.35h20.06l1.35-1.35V7.07Z"/><path class="cls-1" d="M425.49,5.73h-1.92V47l-4.69,4.69h-24.78l-4.69-4.69V5.73h-1.97V.02h9.62V5.73h-1.94V44.64l1.35,1.35h20.06l1.35-1.35V5.73h-1.99V.02h9.62V5.73Z"/><path class="cls-1" d="M476.07,4.77V23.86l-4.69,4.69h-23.76v17.44h1.94v5.7h-9.62v-5.7h1.98V5.78h-1.98V.07h31.44l4.69,4.69Zm-5.7,2.36l-1.35-1.35h-21.39V22.84h21.39l1.35-1.35V7.13Z"/></g></g></svg>