<?xml version="1.0" encoding="UTF-8"?><svg id="Layer_2" xmlns="http://www.w3.org/2000/svg" viewBox="0 0 435.3 42.72"><defs><style>.cls-1{fill:#5c5f62;}</style></defs><g id="Layer_1-2"><g><path class="cls-1" d="M0,.72H13.26V31.44h21.18v10.56H0V.72Z"/><path class="cls-1" d="M67.68,42l-1.74-5.82h-14.46l-1.74,5.82h-13.56L51.24,.72h15.42l15.06,41.28h-14.04Zm-13.44-15.06h8.94l-4.32-14.7h-.24l-4.38,14.7Z"/><path class="cls-1" d="M116.22,42l-17.34-20.04v20.04h-12.18V.72h11.58l17.34,20.34V.72h12.18V42h-11.58Z"/><path class="cls-1" d="M176.22,21.36c0,13.76-7.22,20.64-21.66,20.64h-17.88V.72h17.88c14.44,0,21.66,6.88,21.66,20.64Zm-26.28,10.74h4.38c5.56,0,8.34-2.98,8.34-8.94v-3.6c0-5.96-2.78-8.94-8.34-8.94h-4.38v21.48Z"/><path class="cls-1" d="M234.78,1.8c3.16,1.2,5.67,2.97,7.53,5.31,1.86,2.34,2.79,5.19,2.79,8.55h-12.66c0-1.72-.76-3.11-2.28-4.17-1.52-1.06-3.36-1.59-5.52-1.59-3.12,0-5.48,.83-7.08,2.49-1.6,1.66-2.4,4.01-2.4,7.05v3.84c0,3.04,.8,5.39,2.4,7.05,1.6,1.66,3.96,2.49,7.08,2.49,2.16,0,4-.51,5.52-1.53,1.52-1.02,2.28-2.33,2.28-3.93h-9.36v-8.4h22.02v23.04h-6.84l-1.32-4.08c-3.76,3.2-8.68,4.8-14.76,4.8-6.84,0-11.98-1.79-15.42-5.37-3.44-3.58-5.16-8.91-5.16-15.99s1.95-12.31,5.85-15.93c3.9-3.62,9.45-5.43,16.65-5.43,3.96,0,7.52,.6,10.68,1.8Z"/><path class="cls-1" d="M290.46,20.22c-1.36,2.04-3.34,3.54-5.94,4.5l9.18,17.28h-14.88l-7.32-15.06h-4.92v15.06h-13.26V.72h25.26c2.96,0,5.49,.57,7.59,1.71,2.1,1.14,3.68,2.68,4.74,4.62,1.06,1.94,1.59,4.05,1.59,6.33,0,2.52-.68,4.8-2.04,6.84Zm-12.54-9c-.72-.72-1.6-1.08-2.64-1.08h-8.7v7.62h8.7c1.04,0,1.92-.37,2.64-1.11,.72-.74,1.08-1.65,1.08-2.73s-.36-1.98-1.08-2.7Z"/><path class="cls-1" d="M336,5.46c3.88,3.64,5.82,8.94,5.82,15.9s-1.94,12.26-5.82,15.9c-3.88,3.64-9.38,5.46-16.5,5.46s-12.61-1.81-16.47-5.43c-3.86-3.62-5.79-8.93-5.79-15.93s1.93-12.31,5.79-15.93c3.86-3.62,9.35-5.43,16.47-5.43s12.62,1.82,16.5,5.46Zm-22.98,7.02c-1.48,1.72-2.22,4.04-2.22,6.96v3.84c0,2.92,.74,5.24,2.22,6.96,1.48,1.72,3.64,2.58,6.48,2.58s5.01-.86,6.51-2.58c1.5-1.72,2.25-4.04,2.25-6.96v-3.84c0-2.92-.75-5.24-2.25-6.96-1.5-1.72-3.67-2.58-6.51-2.58s-5,.86-6.48,2.58Z"/><path class="cls-1" d="M384.72,38.28c-3.56,2.96-8.62,4.44-15.18,4.44s-11.63-1.48-15.21-4.44c-3.58-2.96-5.37-7.26-5.37-12.9V.72h13.26V25.2c0,2.32,.62,4.17,1.86,5.55s3.04,2.07,5.4,2.07,4.17-.7,5.43-2.1c1.26-1.4,1.89-3.24,1.89-5.52V.72h13.26V25.38c0,5.64-1.78,9.94-5.34,12.9Z"/><path class="cls-1" d="M428.94,2.49c2,1.18,3.56,2.8,4.68,4.86,1.12,2.06,1.68,4.37,1.68,6.93v.78c0,2.56-.56,4.88-1.68,6.96-1.12,2.08-2.68,3.71-4.68,4.89-2,1.18-4.28,1.77-6.84,1.77h-9.9v13.32h-13.26V.72h23.16c2.56,0,4.84,.59,6.84,1.77Zm-16.74,16.53h5.46c1.4,0,2.45-.36,3.15-1.08,.7-.72,1.05-1.7,1.05-2.94v-.48c0-1.28-.35-2.27-1.05-2.97-.7-.7-1.75-1.05-3.15-1.05h-5.46v8.52Z"/></g></g></svg>